<svg width="988" height="188" fill="none" xmlns="http://www.w3.org/2000/svg"><path d="M1 135.807c45.065-17.947 143.033-60.352 174.381-86.395 39.184-32.555 113.282-66.64 160.824-34.503 18.141 12.263-4.994 28.327-42.453 43.727-89.091 36.63-273.881 136.912-178.805 121.434 10.421-1.696 23.441-4.644 39.449-9.066 135.79-37.507 109.73 32.004 191.837-6.677 67.845-23.048 194.14-82.138 156.552-134.114-46.984-64.97 333.348 74.569 223.594 119.645-109.754 45.076 110.682-163.19 150.424-134.949 39.742 28.242-84.312 199.223 12.443 167.086C966.649 156.285 986 74.732 986 37.169" stroke="#171719" stroke-width="3"/></svg>