<svg width="95" height="95" fill="none" xmlns="http://www.w3.org/2000/svg"><circle cx="47.5" cy="47.5" r="47.5" fill="#171719"/><path d="M34.318 53l-3.024-9.8h1.596l2.31 7.84 2.31-7.84h1.596L36.082 53h-1.764zm9.137-8.008c-.327 0-.602-.103-.826-.308a1.067 1.067 0 01-.322-.784c0-.308.107-.565.322-.77.224-.205.499-.308.826-.308.336 0 .61.103.826.308.224.205.336.462.336.77s-.112.57-.336.784c-.215.205-.49.308-.826.308zM40.669 53v-1.288h2.184v-3.906c0-.308-.15-.462-.449-.462h-1.54v-1.288h1.806c.58 0 1 .135 1.26.406.271.261.407.681.407 1.26v3.99h2.183V53h-5.852zm11.404.168c-.672 0-1.265-.15-1.778-.448a3.23 3.23 0 01-1.204-1.274c-.29-.541-.434-1.171-.434-1.89 0-.728.14-1.367.42-1.918.29-.55.69-.98 1.204-1.288.523-.308 1.125-.462 1.806-.462.672 0 1.25.154 1.736.462.485.299.859.7 1.12 1.204.27.504.406 1.06.406 1.666v.308c0 .103-.005.22-.014.35h-5.222c.047.644.257 1.134.63 1.47.373.327.812.49 1.316.49.439 0 .784-.089 1.036-.266.261-.187.453-.439.574-.756h1.498a3.212 3.212 0 01-1.05 1.68c-.532.448-1.213.672-2.044.672zm0-5.992c-.457 0-.863.14-1.218.42-.355.27-.583.653-.686 1.148h3.696c-.037-.467-.22-.845-.546-1.134-.327-.29-.742-.434-1.246-.434zM57.808 53l-1.512-6.944h1.456l.84 4.872.994-4.872h1.596l.994 4.872.84-4.872h1.456L62.96 53h-1.526l-1.05-5.012L59.334 53h-1.526z" fill="#fff"/></svg>