<svg width="988" height="188" viewBox="0 0 988 188" fill="none" xmlns="http://www.w3.org/2000/svg">
<path d="M1 135.807C46.0654 117.86 144.033 75.4553 175.381 49.4116C214.565 16.857 288.663 -17.228 336.205 14.9092C354.346 27.1723 331.211 43.2356 293.752 58.6365C204.661 95.2661 19.8709 195.548 114.947 180.07C125.368 178.374 138.388 175.426 154.396 171.004C290.186 133.497 264.126 203.008 346.233 164.327C414.078 141.279 540.373 82.1888 502.785 30.2127C455.801 -34.7574 836.133 104.782 726.379 149.858C616.625 194.934 837.061 -13.3326 876.803 14.9092C916.545 43.1511 792.491 214.132 889.246 181.995C966.649 156.285 986 74.7318 986 37.1688" stroke="#171719" stroke-width="3"/>
</svg>
