<?xml version="1.0" standalone="no"?>
<!DOCTYPE svg PUBLIC "-//W3C//DTD SVG 20010904//EN"
 "http://www.w3.org/TR/2001/REC-SVG-20010904/DTD/svg10.dtd">
<svg version="1.0" xmlns="http://www.w3.org/2000/svg"
 width="512.000000pt" height="512.000000pt" viewBox="0 0 512.000000 512.000000"
 preserveAspectRatio="xMidYMid meet">
<metadata>
Created by potrace 1.14, written by Peter Selinger 2001-2017
</metadata>
<g transform="translate(0.000000,512.000000) scale(0.100000,-0.100000)"
fill="#000000" stroke="none">
<path d="M1170 3708 c-396 -24 -721 -255 -877 -620 -143 -338 -132 -812 28
-1130 126 -252 338 -433 599 -514 183 -57 466 -57 648 1 144 46 288 153 389
291 l48 66 7 -119 c5 -65 11 -146 14 -180 l6 -63 119 0 119 0 0 595 0 595
-460 0 -460 0 0 -105 0 -105 325 0 c253 0 325 -3 325 -12 0 -47 -36 -217 -61
-293 -80 -240 -237 -392 -464 -451 -99 -26 -344 -26 -435 -1 -305 85 -512 344
-560 704 -20 143 -8 374 24 497 64 246 203 426 401 521 112 54 192 74 321 82
184 11 354 -29 477 -113 105 -72 172 -163 207 -281 l13 -43 154 0 155 0 -7 33
c-10 46 -53 154 -83 207 -179 315 -515 467 -972 438z"/>
<path d="M2700 2560 l0 -1120 135 0 135 0 2 872 3 872 370 -712 370 -712 104
3 103 2 372 714 371 714 3 -876 2 -877 135 0 135 0 0 1120 0 1120 -159 0 -159
0 -399 -779 c-219 -429 -402 -776 -406 -771 -5 4 -187 354 -405 776 l-397 769
-157 3 -158 3 0 -1121z"/>
</g>
</svg>
